Coordinates
version=1
nRows=95
nColumns=11
inDegrees=no

Units are S.I. units (second, meters, Newtons, ...)
If the header above contains a line with 'inDegrees', this indicates whether rotational values are in degrees (yes) or radians (no).

endheader
time	pelvis_tilt	pelvis_tx	pelvis_ty	hip_flexion_r	knee_angle_r	ankle_angle_r	hip_flexion_l	knee_angle_l	ankle_angle_l	lumbar_extension
105.01	0.0700105	0.378705	0.909114	0.147216	-0.38527	0.12091	0.219564	-1.27574	-0.086587	0
105.02	0.0681548	0.377821	0.910213	0.139286	-0.38343	0.122508	0.243945	-1.28534	-0.0765233	0
105.03	0.0651647	0.376892	0.911104	0.133449	-0.38329	0.12576	0.268698	-1.29101	-0.0701854	0
105.04	0.0630598	0.376013	0.912161	0.126894	-0.383498	0.134046	0.291297	-1.29086	-0.0660782	0
105.05	0.0632436	0.375568	0.913657	0.115604	-0.379275	0.139947	0.30779	-1.2826	-0.0616453	0
105.06	0.0654922	0.375982	0.915466	0.0991505	-0.371124	0.141532	0.318023	-1.26724	-0.0540383	0
105.07	0.0660575	0.375965	0.916769	0.0840216	-0.360991	0.143845	0.329689	-1.24904	-0.0450116	0
105.08	0.0642592	0.375052	0.917723	0.0725423	-0.352409	0.148358	0.344019	-1.22823	-0.0387016	0
105.09	0.0628733	0.37425	0.918533	0.0611338	-0.345162	0.154519	0.357036	-1.204	-0.0325669	0
105.1	0.0617622	0.37353	0.919329	0.0501304	-0.339352	0.158779	0.367743	-1.17495	-0.0231778	0
105.11	0.0801142	0.376613	0.920986	0.0161548	-0.338962	0.164648	0.350394	-1.14207	-0.0118397	0
105.12	0.0654059	0.374311	0.920991	0.0168369	-0.319663	0.172309	0.373883	-1.10018	0.00342486	0
105.13	0.079976	0.376709	0.92201	-0.0102793	-0.322713	0.17908	0.359642	-1.06072	0.00773677	0
105.14	0.0608923	0.373137	0.921392	-0.00180907	-0.307275	0.182018	0.385649	-1.01209	0.0151694	0
105.15	0.0572581	0.371998	0.921198	-0.00670582	-0.307199	0.188721	0.391804	-0.965045	0.0223878	0
105.16	0.0543155	0.371148	0.920948	-0.0132708	-0.305892	0.196782	0.394821	-0.913773	0.0295562	0
105.17	0.0737802	0.373842	0.921911	-0.0474054	-0.310051	0.204217	0.366312	-0.86034	0.0303289	0
105.18	0.0776625	0.37462	0.922214	-0.0665846	-0.301606	0.20983	0.353637	-0.797751	0.0314877	0
105.19	0.0786987	0.374978	0.922095	-0.0799327	-0.297466	0.218332	0.342118	-0.730256	0.0290693	0
105.2	0.0782149	0.374892	0.921666	-0.0913098	-0.293623	0.227123	0.331899	-0.661359	0.0211017	0
105.21	0.0766052	0.374483	0.921033	-0.100718	-0.290244	0.235973	0.32226	-0.591674	0.0141213	0
105.22	0.0755127	0.374286	0.920224	-0.109976	-0.289354	0.245322	0.312062	-0.523334	0.00741462	0
105.23	0.0746546	0.374365	0.919219	-0.119765	-0.289194	0.255066	0.301087	-0.456531	0.00277287	0
105.24	0.0753702	0.374864	0.918467	-0.132103	-0.287109	0.260748	0.287937	-0.39118	-0.00135337	0
105.25	0.0764228	0.375473	0.91763	-0.145714	-0.282783	0.267131	0.274783	-0.328992	-0.00713675	0
105.26	0.0767892	0.376079	0.916495	-0.157706	-0.280038	0.276786	0.257973	-0.260619	-0.0116855	0
105.27	0.0773098	0.376772	0.915251	-0.16875	-0.280853	0.287344	0.238958	-0.190181	-0.0134867	0
105.28	0.0783242	0.377516	0.913815	-0.181459	-0.27987	0.29767	0.225091	-0.134502	-0.0110091	0
105.29	0.0800453	0.378384	0.912481	-0.196149	-0.276145	0.306363	0.21473	-0.0943954	-0.00242805	0
105.3	0.0825636	0.379727	0.91131	-0.210727	-0.275294	0.31646	0.204064	-0.0616804	0.00615936	0
105.31	0.08569	0.381154	0.910277	-0.223952	-0.278151	0.323458	0.19349	-0.0360654	0.01714	0
105.32	0.0886352	0.382079	0.909413	-0.235238	-0.283765	0.32776	0.187265	-0.024092	0.0262565	0
105.33	0.089876	0.382566	0.9084	-0.244255	-0.289928	0.332868	0.190419	-0.033872	0.0344004	0
105.34	0.090139	0.38318	0.90704	-0.252251	-0.296552	0.340956	0.195922	-0.0537793	0.0347506	0
105.35	0.0906707	0.384112	0.905653	-0.25981	-0.304961	0.351657	0.200653	-0.0774622	0.0282815	0
105.36	0.0913076	0.385012	0.904449	-0.266496	-0.31466	0.358968	0.203983	-0.0994859	0.0153204	0
105.37	0.0922169	0.385911	0.903476	-0.272848	-0.325102	0.362632	0.205838	-0.118538	-0.00407345	0
105.38	0.0924697	0.387043	0.902441	-0.278271	-0.336192	0.364049	0.209195	-0.138354	-0.0209764	0
105.39	0.0746482	0.385666	0.900327	-0.261286	-0.344716	0.362986	0.231433	-0.149401	-0.0347101	0
105.4	0.0939486	0.389458	0.900519	-0.283518	-0.372988	0.36352	0.21072	-0.17071	-0.0541893	0
105.41	0.101043	0.391987	0.899947	-0.294753	-0.390716	0.362199	0.199766	-0.180273	-0.0812604	0
105.42	0.107102	0.39431	0.899171	-0.302714	-0.411761	0.360982	0.1903	-0.189866	-0.106155	0
105.43	0.11165	0.396217	0.898652	-0.30374	-0.441604	0.353371	0.185263	-0.205288	-0.111623	0
105.44	0.114919	0.397637	0.898342	-0.297299	-0.481166	0.338592	0.185622	-0.230187	-0.0949109	0
105.45	0.117855	0.398999	0.898182	-0.286892	-0.525728	0.321473	0.186417	-0.256717	-0.0778157	0
105.46	0.1206	0.400331	0.898388	-0.274036	-0.572017	0.302234	0.186011	-0.281456	-0.0638855	0
105.47	0.123552	0.401626	0.898842	-0.257332	-0.623802	0.27302	0.183455	-0.303045	-0.0497109	0
105.48	0.10305	0.399629	0.898148	-0.207809	-0.675471	0.238383	0.208782	-0.319077	-0.0301767	0
105.49	0.120699	0.403155	0.898488	-0.196465	-0.745796	0.207439	0.193722	-0.349695	-0.00917907	0
105.5	0.102443	0.399206	0.898239	-0.146775	-0.802972	0.173716	0.211008	-0.358591	0.00999082	0
105.51	0.100354	0.398875	0.898528	-0.10994	-0.870025	0.139557	0.208807	-0.367869	0.0237433	0
105.52	0.118697	0.401404	0.899997	-0.100439	-0.934247	0.105233	0.180725	-0.380501	0.0369509	0
105.53	0.100347	0.398903	0.900119	-0.0464984	-0.986589	0.0737111	0.194081	-0.378667	0.0504249	0
105.54	0.0995024	0.397832	0.901081	-0.0146362	-1.03987	0.0525014	0.189078	-0.385937	0.0610368	0
105.55	0.0990739	0.397626	0.902405	0.0144689	-1.08675	0.0532155	0.178798	-0.382274	0.0694324	0
105.56	0.0987602	0.397165	0.903737	0.0438096	-1.13156	0.072142	0.169018	-0.37969	0.0774533	0
105.57	0.0953301	0.395684	0.905083	0.0766256	-1.17093	0.09147	0.165787	-0.381296	0.0829659	0
105.58	0.093004	0.394479	0.906832	0.106473	-1.20312	0.10832	0.159795	-0.379833	0.0843516	0
105.59	0.0902795	0.393182	0.908558	0.136917	-1.23131	0.119563	0.15169	-0.374418	0.0859778	0
105.6	0.0868589	0.391578	0.910211	0.168135	-1.25521	0.126388	0.145646	-0.370656	0.089038	0
105.61	0.0827878	0.3897	0.911908	0.197307	-1.2717	0.138918	0.138683	-0.363541	0.0924427	0
105.62	0.0804545	0.388329	0.913784	0.221884	-1.28112	0.151406	0.126569	-0.351423	0.0965395	0
105.63	0.0793012	0.387326	0.915724	0.242515	-1.28372	0.161338	0.114118	-0.340655	0.098067	0
105.64	0.0769837	0.385799	0.917326	0.264947	-1.28347	0.170874	0.10387	-0.33047	0.0976226	0
105.65	0.0757726	0.384468	0.919082	0.284046	-1.27793	0.177954	0.0929177	-0.323455	0.0938157	0
105.66	0.0706801	0.381985	0.921227	0.306431	-1.2664	0.182765	0.0904984	-0.324509	0.0826993	0
105.67	0.0697376	0.380935	0.923295	0.322774	-1.24974	0.186423	0.0841311	-0.326013	0.0742883	0
105.68	0.0548296	0.37636	0.923578	0.358682	-1.23466	0.191726	0.0909151	-0.318149	0.0719606	0
105.69	0.059591	0.375499	0.924942	0.360407	-1.20617	0.19223	0.0724266	-0.313416	0.077847	0
105.7	0.0574985	0.374837	0.925486	0.372768	-1.17548	0.191792	0.0628167	-0.30449	0.0816402	0
105.71	0.054713	0.373028	0.92598	0.383369	-1.14106	0.191568	0.054281	-0.297508	0.0875358	0
105.72	0.0720746	0.374993	0.926571	0.366712	-1.10724	0.188867	0.0225425	-0.296413	0.105991	0
105.73	0.0692393	0.373756	0.925875	0.373861	-1.06555	0.185633	0.0103826	-0.280818	0.126134	0
105.74	0.0485592	0.369601	0.924193	0.403239	-1.01785	0.180984	0.0233234	-0.266039	0.141284	0
105.75	0.0441891	0.36766	0.923815	0.408432	-0.966432	0.172951	0.0210176	-0.265866	0.149076	0
105.76	0.0423912	0.366308	0.923798	0.406748	-0.909668	0.163601	0.0158208	-0.268314	0.156732	0
105.77	0.063574	0.368716	0.924775	0.374802	-0.85624	0.149251	-0.0155419	-0.281039	0.169457	0
105.78	0.0642119	0.368018	0.924472	0.365579	-0.793075	0.141074	-0.0256658	-0.280148	0.181182	0
105.79	0.0610989	0.366623	0.92377	0.361365	-0.731038	0.134398	-0.0295051	-0.282017	0.192453	0
105.8	0.0576958	0.365405	0.92289	0.354478	-0.664846	0.126626	-0.0334236	-0.284392	0.204657	0
105.81	0.0555284	0.364757	0.922026	0.34296	-0.594601	0.115671	-0.039462	-0.286688	0.21436	0
105.82	0.0547659	0.3645	0.921248	0.330202	-0.527603	0.108536	-0.0460218	-0.291206	0.222275	0
105.83	0.0536583	0.364145	0.920214	0.317677	-0.461759	0.102539	-0.0528949	-0.294048	0.236386	0
105.84	0.0282887	0.359262	0.917689	0.331696	-0.388303	0.100577	-0.0314624	-0.290112	0.246783	0
105.85	0.0523168	0.364097	0.917955	0.291354	-0.334191	0.0952969	-0.0630759	-0.308796	0.262765	0
105.86	0.0292707	0.360361	0.915524	0.298521	-0.258584	0.0936836	-0.0488161	-0.298008	0.274449	0
105.87	0.0510719	0.363872	0.915626	0.259826	-0.210891	0.0910292	-0.0820967	-0.310539	0.287292	0
105.88	0.0538185	0.364823	0.914522	0.24382	-0.163538	0.0931059	-0.0976091	-0.308006	0.297849	0
105.89	0.0556007	0.36555	0.913439	0.231616	-0.126385	0.0946318	-0.110442	-0.307404	0.30897	0
105.9	0.0589939	0.366577	0.912448	0.218695	-0.097299	0.09786	-0.123531	-0.310534	0.319912	0
105.91	0.0602276	0.367242	0.91125	0.211257	-0.0786302	0.100348	-0.13281	-0.315762	0.330689	0
105.92	0.0604447	0.36784	0.910135	0.207044	-0.0714273	0.0989104	-0.140625	-0.322431	0.341412	0
105.93	0.0394185	0.365589	0.90785	0.230611	-0.0710464	0.0911732	-0.124218	-0.320242	0.350217	0
105.94	0.0582601	0.368334	0.908159	0.212896	-0.0980674	0.076656	-0.150111	-0.339667	0.359156	0
105.95	0.0612461	0.369331	0.907377	0.210719	-0.115326	0.0591486	-0.159128	-0.34926	0.366306	0
